<?xml version="1.0" encoding="UTF-8"?>
<svg xmlns="http://www.w3.org/2000/svg" width="512" height="512" viewBox="0 0 512 512" data-art="2026-v3" data-rarity="mythic" data-type="accessory">
  <defs>

    <linearGradient id="mythic-accessory-bg" x1="0%" y1="0%" x2="100%" y2="100%">
      <stop offset="0%" stop-color="#2a0a1e"/>
      <stop offset="55%" stop-color="#4a044e"/>
      <stop offset="100%" stop-color="#831843"/>
    </linearGradient>
    <radialGradient id="mythic-accessory-glow" cx="50%" cy="40%" r="60%">
      <stop offset="0%" stop-color="#f472b6" stop-opacity="0.32"/>
      <stop offset="100%" stop-color="#020617" stop-opacity="0"/>
    </radialGradient>
    <filter id="mythic-accessory-soft" x="-25%" y="-25%" width="150%" height="150%">
      <feGaussianBlur stdDeviation="3.5"/>
    </filter>
    <filter id="mythic-accessory-strong" x="-50%" y="-50%" width="200%" height="200%">
      <feGaussianBlur stdDeviation="9" result="b"/>
      <feMerge><feMergeNode in="b"/><feMergeNode in="SourceGraphic"/></feMerge>
    </filter>

  </defs>
  <rect width="512" height="512" fill="url(#mythic-accessory-bg)"/>
  <rect width="512" height="512" fill="url(#mythic-accessory-glow)"/>
  <g opacity="0.12" stroke="#fbcfe8" stroke-width="1" fill="none">
    <line x1="32" y1="40" x2="32" y2="472"/>
    <line x1="88" y1="40" x2="88" y2="472"/>
    <line x1="144" y1="40" x2="144" y2="472"/>
    <line x1="200" y1="40" x2="200" y2="472"/>
    <line x1="256" y1="40" x2="256" y2="472"/>
    <line x1="312" y1="40" x2="312" y2="472"/>
    <line x1="368" y1="40" x2="368" y2="472"/>
    <line x1="424" y1="40" x2="424" y2="472"/>
    <line x1="480" y1="40" x2="480" y2="472"/>
    <line x1="40" y1="32" x2="472" y2="32"/>
    <line x1="40" y1="88" x2="472" y2="88"/>
    <line x1="40" y1="144" x2="472" y2="144"/>
    <line x1="40" y1="200" x2="472" y2="200"/>
    <line x1="40" y1="256" x2="472" y2="256"/>
    <line x1="40" y1="312" x2="472" y2="312"/>
    <line x1="40" y1="368" x2="472" y2="368"/>
    <line x1="40" y1="424" x2="472" y2="424"/>
    <line x1="40" y1="480" x2="472" y2="480"/>
  </g>
  
    <rect x="40" y="40" width="432" height="432" rx="32" fill="none" stroke="#ec4899" stroke-width="3" opacity="0.55"/>
    <rect x="56" y="56" width="400" height="400" rx="24" fill="none" stroke="#ec4899" stroke-width="1" opacity="0.35"/>
  <path d="M64 130 Q64 64 130 64" fill="none" stroke="#fbcfe8" stroke-width="6" stroke-linecap="round" opacity="0.85"/>
    <path d="M382 64 Q448 64 448 130" fill="none" stroke="#fbcfe8" stroke-width="6" stroke-linecap="round" opacity="0.85"/>
    <path d="M64 382 Q64 448 130 448" fill="none" stroke="#fbcfe8" stroke-width="6" stroke-linecap="round" opacity="0.85"/>
    <path d="M382 448 Q448 448 448 382" fill="none" stroke="#fbcfe8" stroke-width="6" stroke-linecap="round" opacity="0.85"/>
  
    <circle cx="155" cy="154" r="1.6" fill="#f472b6" opacity="0.39"/>
    <circle cx="348" cy="402" r="3.6" fill="#f472b6" opacity="0.55"/>
    <circle cx="65" cy="126" r="3.5" fill="#f472b6" opacity="0.82"/>
    <circle cx="158" cy="338" r="4.3" fill="#f472b6" opacity="0.49"/>
    <circle cx="158" cy="160" r="3.6" fill="#f472b6" opacity="0.68"/>
    <circle cx="321" cy="315" r="2.1" fill="#f472b6" opacity="0.59"/>
    <circle cx="409" cy="202" r="4.9" fill="#f472b6" opacity="0.74"/>
    <circle cx="302" cy="339" r="3.4" fill="#f472b6" opacity="0.54"/>
    <circle cx="82" cy="359" r="4.8" fill="#f472b6" opacity="0.59"/>
    <circle cx="384" cy="401" r="2.4" fill="#f472b6" opacity="0.43"/>
    <circle cx="258" cy="417" r="2.0" fill="#f472b6" opacity="0.50"/>
    <circle cx="396" cy="127" r="3.6" fill="#f472b6" opacity="0.62"/>
    <circle cx="344" cy="411" r="2.4" fill="#f472b6" opacity="0.46"/>
    <circle cx="286" cy="262" r="5.0" fill="#f472b6" opacity="0.38"/>
    <circle cx="346" cy="272" r="4.2" fill="#f472b6" opacity="0.52"/>
    <circle cx="159" cy="101" r="3.8" fill="#f472b6" opacity="0.65"/>
    <circle cx="255" cy="137" r="4.4" fill="#f472b6" opacity="0.55"/>
    <circle cx="195" cy="272" r="2.0" fill="#f472b6" opacity="0.64"/>
  
  <g filter="url(#mythic-accessory-soft)">
    <linearGradient id="mythic-accessory-gem" x1="0%" y1="0%" x2="100%" y2="100%">
      <stop offset="0%" stop-color="#fbcfe8"/>
      <stop offset="50%" stop-color="#f472b6"/>
      <stop offset="100%" stop-color="#831843"/>
    </linearGradient>
  </g>
  <circle cx="256" cy="256" r="152" fill="none" stroke="#ec4899" stroke-width="20" opacity="0.95"/>
  <circle cx="256" cy="256" r="118" fill="none" stroke="#fbcfe8" stroke-width="4" opacity="0.55"/>
  <circle cx="256" cy="256" r="100" fill="#831843" stroke="#f472b6" stroke-width="6"/>
  <path d="M256 148 A108 108 0 0 1 332 180"
        transform="rotate(0 256 256)" fill="none" stroke="#ec4899" stroke-width="5" stroke-linecap="round" opacity="0.7"/>
  <path d="M256 148 A108 108 0 0 1 364 256"
        transform="rotate(45 256 256)" fill="none" stroke="#ec4899" stroke-width="5" stroke-linecap="round" opacity="0.7"/>
  <path d="M256 148 A108 108 0 0 1 332 332"
        transform="rotate(90 256 256)" fill="none" stroke="#ec4899" stroke-width="5" stroke-linecap="round" opacity="0.7"/>
  <path d="M256 148 A108 108 0 0 1 256 364"
        transform="rotate(135 256 256)" fill="none" stroke="#ec4899" stroke-width="5" stroke-linecap="round" opacity="0.7"/>
  <path d="M256 148 A108 108 0 0 1 180 332"
        transform="rotate(180 256 256)" fill="none" stroke="#ec4899" stroke-width="5" stroke-linecap="round" opacity="0.7"/>
  <path d="M256 148 A108 108 0 0 1 148 256"
        transform="rotate(225 256 256)" fill="none" stroke="#ec4899" stroke-width="5" stroke-linecap="round" opacity="0.7"/>
  <path d="M256 148 A108 108 0 0 1 180 180"
        transform="rotate(270 256 256)" fill="none" stroke="#ec4899" stroke-width="5" stroke-linecap="round" opacity="0.7"/>
  <path d="M256 148 A108 108 0 0 1 256 148"
        transform="rotate(315 256 256)" fill="none" stroke="#ec4899" stroke-width="5" stroke-linecap="round" opacity="0.7"/>
  <polygon points="256,148 274,218 338,218 288,262 308,332 256,292 204,332 224,262 174,218 238,218" fill="url(#mythic-accessory-gem)" stroke="#fbcfe8" stroke-width="2" opacity="0.95"/>
  <circle cx="256" cy="246" r="28" fill="#0f172a" stroke="#fbcfe8" stroke-width="3"/>
  <circle cx="256" cy="246" r="10" fill="#f472b6"/>
</svg>