<?xml version="1.0" encoding="UTF-8"?>
<svg xmlns="http://www.w3.org/2000/svg" width="512" height="512" viewBox="0 0 512 512" data-art="2026-v3" data-rarity="legendary" data-type="armor">
  <defs>

    <linearGradient id="legendary-armor-bg" x1="0%" y1="0%" x2="100%" y2="100%">
      <stop offset="0%" stop-color="#2a1305"/>
      <stop offset="55%" stop-color="#451a03"/>
      <stop offset="100%" stop-color="#7c2d12"/>
    </linearGradient>
    <radialGradient id="legendary-armor-glow" cx="50%" cy="40%" r="60%">
      <stop offset="0%" stop-color="#fbbf24" stop-opacity="0.32"/>
      <stop offset="100%" stop-color="#020617" stop-opacity="0"/>
    </radialGradient>
    <filter id="legendary-armor-soft" x="-25%" y="-25%" width="150%" height="150%">
      <feGaussianBlur stdDeviation="3.5"/>
    </filter>
    <filter id="legendary-armor-strong" x="-50%" y="-50%" width="200%" height="200%">
      <feGaussianBlur stdDeviation="9" result="b"/>
      <feMerge><feMergeNode in="b"/><feMergeNode in="SourceGraphic"/></feMerge>
    </filter>

  </defs>
  <rect width="512" height="512" fill="url(#legendary-armor-bg)"/>
  <rect width="512" height="512" fill="url(#legendary-armor-glow)"/>
  <g opacity="0.12" stroke="#fde68a" stroke-width="1" fill="none">
    <line x1="32" y1="40" x2="32" y2="472"/>
    <line x1="88" y1="40" x2="88" y2="472"/>
    <line x1="144" y1="40" x2="144" y2="472"/>
    <line x1="200" y1="40" x2="200" y2="472"/>
    <line x1="256" y1="40" x2="256" y2="472"/>
    <line x1="312" y1="40" x2="312" y2="472"/>
    <line x1="368" y1="40" x2="368" y2="472"/>
    <line x1="424" y1="40" x2="424" y2="472"/>
    <line x1="480" y1="40" x2="480" y2="472"/>
    <line x1="40" y1="32" x2="472" y2="32"/>
    <line x1="40" y1="88" x2="472" y2="88"/>
    <line x1="40" y1="144" x2="472" y2="144"/>
    <line x1="40" y1="200" x2="472" y2="200"/>
    <line x1="40" y1="256" x2="472" y2="256"/>
    <line x1="40" y1="312" x2="472" y2="312"/>
    <line x1="40" y1="368" x2="472" y2="368"/>
    <line x1="40" y1="424" x2="472" y2="424"/>
    <line x1="40" y1="480" x2="472" y2="480"/>
  </g>
  
    <rect x="40" y="40" width="432" height="432" rx="32" fill="none" stroke="#f59e0b" stroke-width="3" opacity="0.55"/>
    <rect x="56" y="56" width="400" height="400" rx="24" fill="none" stroke="#f59e0b" stroke-width="1" opacity="0.35"/>
  <path d="M64 130 Q64 64 130 64" fill="none" stroke="#fde68a" stroke-width="6" stroke-linecap="round" opacity="0.85"/>
    <path d="M382 64 Q448 64 448 130" fill="none" stroke="#fde68a" stroke-width="6" stroke-linecap="round" opacity="0.85"/>
    <path d="M64 382 Q64 448 130 448" fill="none" stroke="#fde68a" stroke-width="6" stroke-linecap="round" opacity="0.85"/>
  
    <circle cx="295" cy="359" r="2.2" fill="#fbbf24" opacity="0.36"/>
    <circle cx="158" cy="233" r="2.8" fill="#fbbf24" opacity="0.42"/>
    <circle cx="155" cy="63" r="4.3" fill="#fbbf24" opacity="0.89"/>
    <circle cx="223" cy="336" r="1.9" fill="#fbbf24" opacity="0.89"/>
    <circle cx="154" cy="438" r="2.1" fill="#fbbf24" opacity="0.80"/>
    <circle cx="73" cy="175" r="4.6" fill="#fbbf24" opacity="0.74"/>
    <circle cx="397" cy="386" r="3.0" fill="#fbbf24" opacity="0.49"/>
    <circle cx="91" cy="279" r="4.7" fill="#fbbf24" opacity="0.38"/>
    <circle cx="281" cy="143" r="2.1" fill="#fbbf24" opacity="0.81"/>
    <circle cx="296" cy="377" r="4.4" fill="#fbbf24" opacity="0.62"/>
    <circle cx="231" cy="412" r="2.6" fill="#fbbf24" opacity="0.60"/>
    <circle cx="257" cy="226" r="2.5" fill="#fbbf24" opacity="0.38"/>
    <circle cx="180" cy="180" r="4.9" fill="#fbbf24" opacity="0.54"/>
    <circle cx="444" cy="311" r="4.9" fill="#fbbf24" opacity="0.74"/>
  
  <g filter="url(#legendary-armor-soft)">
    <linearGradient id="legendary-armor-metal" x1="0%" y1="0%" x2="100%" y2="100%">
      <stop offset="0%" stop-color="#fde68a"/>
      <stop offset="50%" stop-color="#78350f"/>
      <stop offset="100%" stop-color="#0f172a"/>
    </linearGradient>
  </g>
  <g transform="translate(256 252)">
    <path d="M-126 -52 C-104 -126 104 -126 126 -52 L138 124 C112 198 -112 198 -138 124 Z" fill="url(#legendary-armor-metal)" stroke="#f59e0b" stroke-width="5"/>
    <path d="M-92 -22 L92 -22 L82 110 L-82 110 Z" fill="#78350f" stroke="#fde68a" stroke-width="3"/>
    <ellipse cx="0" cy="-66" rx="48" ry="38" fill="none" stroke="#fbbf24" stroke-width="4" opacity="0.85"/>
    <rect x="-26" y="-10" width="52" height="80" rx="10" fill="#fbbf24" opacity="0.55"/>
    <rect x="-18" y="-2" width="36" height="64" rx="8" fill="#fde68a" opacity="0.85"/>
    <path d="M-138 -22 L-178 -60 M138 -22 L178 -60" stroke="#f59e0b" stroke-width="14" stroke-linecap="round"/>
    <circle cx="-78" cy="48" r="14" fill="#78350f" stroke="#fde68a" stroke-width="2"/>
    <circle cx="78" cy="48" r="14" fill="#78350f" stroke="#fde68a" stroke-width="2"/>
  </g>
</svg>