<?xml version="1.0" encoding="UTF-8"?>
<svg xmlns="http://www.w3.org/2000/svg" width="512" height="512" viewBox="0 0 512 512" data-art="2026-v3" data-rarity="common" data-type="relic">
  <defs>

    <linearGradient id="common-relic-bg" x1="0%" y1="0%" x2="100%" y2="100%">
      <stop offset="0%" stop-color="#0a1320"/>
      <stop offset="55%" stop-color="#0f1e33"/>
      <stop offset="100%" stop-color="#1f2937"/>
    </linearGradient>
    <radialGradient id="common-relic-glow" cx="50%" cy="40%" r="60%">
      <stop offset="0%" stop-color="#cbd5e1" stop-opacity="0.32"/>
      <stop offset="100%" stop-color="#020617" stop-opacity="0"/>
    </radialGradient>
    <filter id="common-relic-soft" x="-25%" y="-25%" width="150%" height="150%">
      <feGaussianBlur stdDeviation="3.5"/>
    </filter>
    <filter id="common-relic-strong" x="-50%" y="-50%" width="200%" height="200%">
      <feGaussianBlur stdDeviation="9" result="b"/>
      <feMerge><feMergeNode in="b"/><feMergeNode in="SourceGraphic"/></feMerge>
    </filter>

  </defs>
  <rect width="512" height="512" fill="url(#common-relic-bg)"/>
  <rect width="512" height="512" fill="url(#common-relic-glow)"/>
  <g opacity="0.12" stroke="#94a3b8" stroke-width="1" fill="none">
    <line x1="32" y1="40" x2="32" y2="472"/>
    <line x1="88" y1="40" x2="88" y2="472"/>
    <line x1="144" y1="40" x2="144" y2="472"/>
    <line x1="200" y1="40" x2="200" y2="472"/>
    <line x1="256" y1="40" x2="256" y2="472"/>
    <line x1="312" y1="40" x2="312" y2="472"/>
    <line x1="368" y1="40" x2="368" y2="472"/>
    <line x1="424" y1="40" x2="424" y2="472"/>
    <line x1="480" y1="40" x2="480" y2="472"/>
    <line x1="40" y1="32" x2="472" y2="32"/>
    <line x1="40" y1="88" x2="472" y2="88"/>
    <line x1="40" y1="144" x2="472" y2="144"/>
    <line x1="40" y1="200" x2="472" y2="200"/>
    <line x1="40" y1="256" x2="472" y2="256"/>
    <line x1="40" y1="312" x2="472" y2="312"/>
    <line x1="40" y1="368" x2="472" y2="368"/>
    <line x1="40" y1="424" x2="472" y2="424"/>
    <line x1="40" y1="480" x2="472" y2="480"/>
  </g>
  
    <rect x="40" y="40" width="432" height="432" rx="32" fill="none" stroke="#64748b" stroke-width="3" opacity="0.55"/>
    <rect x="56" y="56" width="400" height="400" rx="24" fill="none" stroke="#64748b" stroke-width="1" opacity="0.35"/>
  
  
  
  <g filter="url(#common-relic-strong)">
    <linearGradient id="common-relic-cr" x1="0%" y1="100%" x2="100%" y2="0%">
      <stop offset="0%" stop-color="#94a3b8"/>
      <stop offset="50%" stop-color="#cbd5e1"/>
      <stop offset="100%" stop-color="#64748b"/>
    </linearGradient>
  </g>
  <g transform="translate(256 256)">
    <path d="M0,-150 L80,-46 L50,128 L-50,128 L-80,-46 Z" fill="url(#common-relic-cr)" stroke="#94a3b8" stroke-width="4"/>
    <path d="M0,-118 L56,-46 L36,98 L-36,98 L-56,-46 Z" fill="#1e293b" opacity="0.55"/>
    <circle cx="0" cy="-22" r="24" fill="#94a3b8" opacity="0.95"/>
    <rect x="-4" y="-66" width="8" height="184" fill="#cbd5e1" opacity="0.45"/>
  </g>
  <ellipse cx="256" cy="424" rx="148" ry="28" fill="#cbd5e1" opacity="0.18"/>
  <g stroke="#cbd5e1" stroke-width="2" fill="none" opacity="0.5">
    <ellipse cx="256" cy="256" rx="170" ry="60"/>
    <ellipse cx="256" cy="256" rx="138" ry="44"/>
  </g>
  <path d="M420 340 L472 392 M92 392 L140 340" stroke="#64748b" stroke-width="3" opacity="0.55" stroke-linecap="round"/>
</svg>