<?xml version="1.0" encoding="UTF-8"?>
<svg xmlns="http://www.w3.org/2000/svg" width="512" height="512" viewBox="0 0 512 512">
  <defs>
    <linearGradient id="cardBg" x1="0" y1="0" x2="1" y2="1">
      <stop offset="0" stop-color="#1e40af" stop-opacity="1"/>
      <stop offset="1" stop-color="#0a1227" stop-opacity="1"/>
    </linearGradient>
    <radialGradient id="topGlow" cx="50%" cy="18%" r="70%">
      <stop offset="0" stop-color="#35b4ff" stop-opacity="0.40"/>
      <stop offset="0.55" stop-color="#1e40af" stop-opacity="0.18"/>
      <stop offset="1" stop-color="#000000" stop-opacity="0"/>
    </radialGradient>
    <radialGradient id="bottomLight" cx="50%" cy="95%" r="58%">
      <stop offset="0" stop-color="#a5d8ff" stop-opacity="0.30"/>
      <stop offset="1" stop-color="#000000" stop-opacity="0"/>
    </linearGradient>
    <linearGradient id="frameHighlight" x1="0" y1="0" x2="1" y2="1">
      <stop offset="0" stop-color="#ffffff" stop-opacity="0.55"/>
      <stop offset="0.3" stop-color="#60a5fa" stop-opacity="0.55"/>
      <stop offset="1" stop-color="#60a5fa" stop-opacity="0.15"/>
    </linearGradient>
    <linearGradient id="skillBg" x1="0" y1="0" x2="0" y2="1">
      <stop offset="0" stop-color="#0f172acc"/>
      <stop offset="1" stop-color="#020617d9"/>
    </linearGradient>
    <filter id="cardShadow" x="-30%" y="-30%" width="160%" height="180%">
      <feDropShadow dx="0" dy="10" stdDeviation="10" flood-color="#020617" flood-opacity="0.65"/>
      <feDropShadow dx="0" dy="0" stdDeviation="8" flood-color="#35b4ff" flood-opacity="0.28"/>
    </filter>
    <filter id="softGlow" x="-60%" y="-60%" width="220%" height="220%">
      <feGaussianBlur stdDeviation="12" result="blur"/>
      <feMerge>
        <feMergeNode in="blur"/>
        <feMergeNode in="SourceGraphic"/>
      </feMerge>
    </filter>
    <filter id="noise" x="0" y="0" width="100%" height="100%">
      <feTurbulence type="fractalNoise" baseFrequency="0.95" numOctaves="2" stitchTiles="stitch" />
      <feColorMatrix type="saturate" values="0"/>
      <feComponentTransfer>
        <feFuncA type="table" tableValues="0 0.08"/>
      </feComponentTransfer>
    </filter>
  </defs>

  <rect x="36" y="36" rx="30" ry="30" width="440" height="440" fill="url(#cardBg)" filter="url(#cardShadow)"/>
  <rect x="36" y="36" rx="30" ry="30" width="440" height="440" fill="url(#topGlow)"/>
  <rect x="36" y="36" rx="30" ry="30" width="440" height="440" fill="url(#bottomLight)"/>
  <rect x="36" y="36" rx="30" ry="30" width="440" height="440" fill="#fff" filter="url(#noise)"/>
  <rect x="36" y="36" rx="30" ry="30" width="440" height="440" fill="none" stroke="url(#frameHighlight)" stroke-width="6"/>
  <rect x="50" y="50" rx="24" ry="24" width="412" height="412" fill="none" stroke="#60a5fa" stroke-opacity="0.28" stroke-width="1.8"/>

  <g opacity="0.28" stroke="#35b4ff" stroke-width="1.1">
    <path d="M86 358 H426"/>
    <path d="M96 380 H416"/>
    <path d="M108 402 H404"/>
    <path d="M256 350 L122 424"/>
    <path d="M256 350 L390 424"/>
  </g>

  <rect x="68" y="72" rx="18" ry="18" width="376" height="56" fill="#0b1226b8" stroke="#60a5fa" stroke-opacity="0.28"/>
  <text x="88" y="108" font-size="26" font-weight="800" font-family="Inter, Segoe UI, system-ui" fill="#edf4ff">Мистический змей</text>
  <text x="424" y="108" text-anchor="end" font-size="16" font-weight="700" font-family="Inter, Segoe UI, system-ui" fill="#a5d8ff">RARE</text>

  <circle cx="102" cy="164" r="28" fill="#0b1226c9" stroke="#60a5fa" stroke-opacity="0.65" stroke-width="2"/>
  <text x="102" y="174" text-anchor="middle" font-size="30" font-family="system-ui,Segoe UI,Apple Color Emoji,Noto Color Emoji" fill="#ffffff">🔮</text>
  <text x="424" y="168" text-anchor="end" font-size="14" font-weight="700" font-family="Inter, Segoe UI, system-ui" fill="#a5d8ff" opacity="0.9">ARCANE • SPIRIT</text>

  <rect x="92" y="184" rx="24" ry="24" width="328" height="188" fill="#0a1022a8" stroke="#60a5fa" stroke-opacity="0.35"/>
  <ellipse cx="256" cy="345" rx="118" ry="22" fill="#35b4ff" opacity="0.18" filter="url(#softGlow)"/>
  <circle cx="256" cy="250" r="82" fill="#35b4ff" opacity="0.12" filter="url(#softGlow)"/>
  <text x="256" y="292" text-anchor="middle" font-size="132" font-family="system-ui,Segoe UI,Apple Color Emoji,Noto Color Emoji" filter="url(#softGlow)">🐍</text>

  <rect x="74" y="382" rx="14" ry="14" width="110" height="62" fill="#0b1226cc" stroke="#60a5fa" stroke-opacity="0.35"/>
  <rect x="201" y="382" rx="14" ry="14" width="110" height="62" fill="#0b1226cc" stroke="#60a5fa" stroke-opacity="0.35"/>
  <rect x="328" y="382" rx="14" ry="14" width="110" height="62" fill="#0b1226cc" stroke="#60a5fa" stroke-opacity="0.35"/>
  <text x="129" y="406" text-anchor="middle" font-size="12" font-weight="700" font-family="Inter, Segoe UI, system-ui" fill="#a5d8ff" opacity="0.9">HP</text>
  <text x="129" y="432" text-anchor="middle" font-size="24" font-weight="800" font-family="Inter, Segoe UI, system-ui" fill="#f8fbff">460</text>
  <text x="256" y="406" text-anchor="middle" font-size="12" font-weight="700" font-family="Inter, Segoe UI, system-ui" fill="#a5d8ff" opacity="0.9">ATK</text>
  <text x="256" y="432" text-anchor="middle" font-size="24" font-weight="800" font-family="Inter, Segoe UI, system-ui" fill="#f8fbff">29</text>
  <text x="383" y="406" text-anchor="middle" font-size="12" font-weight="700" font-family="Inter, Segoe UI, system-ui" fill="#a5d8ff" opacity="0.9">SPD</text>
  <text x="383" y="432" text-anchor="middle" font-size="24" font-weight="800" font-family="Inter, Segoe UI, system-ui" fill="#f8fbff">8</text>

  <rect x="74" y="454" rx="12" ry="12" width="364" height="28" fill="url(#skillBg)" stroke="#60a5fa" stroke-opacity="0.30"/>
  <text x="92" y="473" font-size="12" font-weight="700" font-family="Inter, Segoe UI, system-ui" fill="#a5d8ff" opacity="0.9">CARD ID</text>
  <text x="424" y="473" text-anchor="end" font-size="12" font-weight="700" font-family="Inter, Segoe UI, system-ui" fill="#dbeafe">r037_mystic-serpent</text>
</svg>
